<svg width="16" height="16" viewBox="0 0 16 16" fill="none" xmlns="http://www.w3.org/2000/svg">
<circle cx="8" cy="8" r="8" fill="#00B352"/>
<path d="M8 0C3.5888 0 0 3.5888 0 8C0 12.4112 3.5888 16 8 16C12.4112 16 16 12.4112 16 8C16 3.5888 12.4112 0 8 0ZM8 14.5455C4.39079 14.5455 1.45455 11.6092 1.45455 8C1.45455 4.39084 4.39079 1.45455 8 1.45455C11.6092 1.45455 14.5455 4.39084 14.5455 8C14.5455 11.6092 11.6092 14.5455 8 14.5455Z" fill="#00B352"/>
<path d="M10.9998 5.17161L6.88571 9.28569L5.00013 7.40007C4.71616 7.1161 4.25565 7.11605 3.97162 7.40002C3.6876 7.68405 3.6876 8.14451 3.97162 8.42853L6.37143 10.8284C6.50782 10.9648 6.69279 11.0415 6.88566 11.0415C6.88571 11.0415 6.88566 11.0415 6.88571 11.0415C7.07859 11.0415 7.26355 10.9648 7.39994 10.8285L12.0284 6.20017C12.3124 5.91614 12.3124 5.45568 12.0284 5.17166C11.7443 4.88764 11.2839 4.88759 10.9998 5.17161Z" fill="white"/>
</svg>
