<svg width="18" height="18" viewBox="0 0 18 18" fill="none" xmlns="http://www.w3.org/2000/svg">
<path d="M17.1563 8.71875C17.1563 13.3797 13.3783 17.1563 8.71875 17.1563C4.05917 17.1563 0.28125 13.3797 0.28125 8.71875C0.28125 4.06054 4.05917 0.28125 8.71875 0.28125C13.3783 0.28125 17.1563 4.06054 17.1563 8.71875ZM8.94517 3.07107C7.09106 3.07107 5.90852 3.85212 4.97992 5.24025C4.85961 5.4201 4.89986 5.66264 5.07229 5.79339L6.25282 6.68851C6.42991 6.8228 6.68222 6.79085 6.8198 6.61632C7.42757 5.84544 7.84431 5.39842 8.76938 5.39842C9.46441 5.39842 10.3241 5.84575 10.3241 6.51973C10.3241 7.02924 9.9035 7.29091 9.21724 7.67566C8.41691 8.12431 7.35786 8.68272 7.35786 10.0796V10.2157C7.35786 10.4412 7.54066 10.624 7.76613 10.624H9.67137C9.89684 10.624 10.0796 10.4412 10.0796 10.2157V10.1704C10.0796 9.20204 12.9098 9.16172 12.9098 6.54133C12.9098 4.56798 10.8629 3.07107 8.94517 3.07107V3.07107ZM8.71875 11.5086C7.85578 11.5086 7.15373 12.2106 7.15373 13.0736C7.15373 13.9365 7.85578 14.6386 8.71875 14.6386C9.58172 14.6386 10.2838 13.9365 10.2838 13.0736C10.2838 12.2106 9.58172 11.5086 8.71875 11.5086Z" fill="#2E2153"/>
</svg>
