<svg width="16" height="16" viewBox="0 0 16 16" fill="none" xmlns="http://www.w3.org/2000/svg">
<path fill-rule="evenodd" clip-rule="evenodd" d="M6.72396 1.06269C6.83063 0.82202 7.06996 0.666687 7.33329 0.666687C8.03996 0.666687 8.71863 0.947354 9.21863 1.44802C9.71863 1.94802 9.99996 2.62602 9.99996 3.33335V5.33335H13.1033C13.392 5.33069 13.6773 5.39069 13.9406 5.50869C14.2053 5.62735 14.4406 5.80202 14.6306 6.02069C14.8213 6.24002 14.9613 6.49735 15.0426 6.77535C15.1226 7.05402 15.1426 7.34669 15.0993 7.63335L14.1793 13.6334C14.1066 14.11 13.8646 14.5447 13.4973 14.8574C13.1306 15.1687 12.664 15.3374 12.1833 15.3334H2.66663C2.13596 15.3334 1.62729 15.1227 1.25263 14.7474C0.877293 14.3734 0.666626 13.864 0.666626 13.3334V8.66669C0.666626 8.13602 0.877293 7.62735 1.25263 7.25269C1.62663 6.87735 2.13596 6.66669 2.66663 6.66669H4.23329L6.72396 1.06269V1.06269ZM5.33329 7.47469L7.73863 2.06335C7.93929 2.12735 8.12396 2.23869 8.27596 2.39002C8.52663 2.64135 8.66663 2.98002 8.66663 3.33335V6.00002C8.66663 6.36802 8.96529 6.66669 9.33329 6.66669H13.114C13.2106 6.66535 13.3066 6.68535 13.3946 6.72535C13.4826 6.76469 13.5613 6.82269 13.6246 6.89602C13.688 6.96935 13.7353 7.05469 13.762 7.14735C13.7886 7.24069 13.7953 7.33735 13.7806 7.43269L12.8606 13.4334C12.8366 13.5927 12.756 13.7374 12.634 13.8414C12.5113 13.9454 12.3546 14.0014 12.194 14H5.33329V7.47469V7.47469ZM3.99996 14V8.00002H2.66663C2.48996 8.00002 2.31996 8.07002 2.19529 8.19535C2.06996 8.32002 1.99996 8.49002 1.99996 8.66669V13.3334C1.99996 13.51 2.06996 13.68 2.19529 13.8047C2.31996 13.93 2.48996 14 2.66663 14H3.99996Z" fill="#2E2153"/>
</svg>
